<?xml version="1.0" encoding="UTF-8"?>
<svg id="Calque_2" data-name="Calque 2" xmlns="http://www.w3.org/2000/svg" viewBox="0 0 60.41 66.93">
  <defs>
    <style>
      .cls-1 {
        fill: #f7ead7;
      }

      .cls-2 {
        fill: #d89233;
      }

      .cls-3 {
        fill: #3a39ff;
      }

      .cls-4 {
        fill: #ffc9bd;
      }
    </style>
  </defs>
  <g id="Calque_1-2" data-name="Calque 1">
    <g>
      <path class="cls-3" d="M60.41,26.19c.09-4.17-3.19-7.64-7.34-7.81-.43-1.78-1.48-3.35-2.96-4.43.06-.41.11-.83.11-1.26,0-4.48-3.64-8.12-8.12-8.12-1.36,0-2.64.34-3.77.93-.4-.94-.89-1.76-1.39-2.44-1.44-1.93-3.73-3.08-6.14-3.08-1.66,0-3.24.53-4.58,1.52-.43.32-.8.69-1.14,1.07-1.13-.6-2.41-.94-3.77-.94-4.3,0-7.81,3.36-8.09,7.58-.45-.04-.89-.07-1.32-.07-.47,0-.92.03-1.36.08-4.2.48-7.22,4.28-6.74,8.47.24,2.09,1.3,3.89,2.84,5.12-1.53,1.48-2.48,3.54-2.48,5.83,0,2.84,1.47,5.34,3.68,6.79L.37,57.53c-.73,2.17-.37,4.57.96,6.42,1.34,1.86,3.5,2.98,5.79,2.98,1.2,0,2.39-.31,3.44-.89l22.76-12.57c1.49,1.85,3.77,3.04,6.32,3.04,3.9,0,7.16-2.76,7.94-6.43.33.05.67.07,1.01.07,1.98,0,3.86-.75,5.29-2.12,2.46-2.35,3-5.95,1.6-8.86.11-.23.23-.45.31-.69.65-1.81.57-3.71-.08-5.37,2.72-1.12,4.62-3.76,4.69-6.91ZM11.86,18.47c-.05,0-.1,0-.14,0,.04,0,.08,0,.14,0ZM11.67,18.48s-.07,0-.08,0c-.06,0-.13.01-.19.01-.03,0-.05,0-.08,0,.09,0,.18,0,.27,0,.01,0,.04,0,.08,0ZM37.02,37.89c-.13.05-.25.09-.38.14.13-.05.25-.09.38-.14ZM24.54,29.07c-.41-.28-.81-.53-1.21-.77.39.24.79.5,1.21.77ZM50.19,28.24s.03-.01.04-.02c-.01,0-.03.01-.04.02h0ZM51.13,27.89c-.08.02-.16.04-.23.06.07-.02.15-.04.23-.06ZM50.64,28.05c-.06.02-.13.05-.19.07.06-.02.13-.05.19-.07ZM52.12,24.4c.16,0,.32-.03.49-.03.06,0,.12,0,.18,0-.23,0-.45.01-.67.03ZM52.31,27.7c-.1,0-.2,0-.29.02.09-.01.2-.01.29-.02ZM51.69,27.77c-.09.02-.18.03-.26.05.08-.02.18-.03.26-.05ZM47.11,19.43c-.04-.09-.09-.17-.15-.25h0c.06.08.11.16.15.25h0ZM13.01,15.25c-.07,0-.13-.02-.2-.03.07,0,.13.02.2.03,0,0,0,0,0,0ZM13.88,18.89c-.05-.02-.1-.04-.15-.06.05.02.1.04.15.06ZM13.47,18.73s-.09-.03-.14-.05c.05.01.09.03.14.05ZM13.07,18.62s-.07-.02-.1-.03c.03,0,.07.02.1.03ZM46.99,43.34s.05.01.07.02c.13.08.24.17.34.28-.11-.12-.26-.21-.41-.29ZM52.72,28.1c.07,0,.14,0,.21-.01-.05,0-.1.02-.15.02-.02,0-.04,0-.06,0ZM54.04,27.08s-.07.1-.12.14c.04-.04.08-.09.12-.14ZM53.82,27.3s-.09.08-.14.11c.05-.03.09-.07.14-.11ZM53.55,27.48c-.05.03-.1.06-.16.08.05-.02.1-.05.16-.08ZM53.26,27.6c-.06.02-.11.04-.17.05.06-.01.11-.03.17-.05ZM54.41,26.06c0-.39-.13-.75-.35-1.04.22.29.36.65.35,1.04h0ZM54.41,26.07c0,.11-.02.22-.04.33.02-.11.04-.21.04-.33ZM54.34,26.5c-.02.07-.04.13-.06.2.03-.06.04-.13.06-.2ZM54.21,26.81c-.03.06-.06.11-.09.17.04-.05.06-.11.09-.17ZM31.87,6.4s-.06-.04-.09-.07c.03.02.06.04.09.07ZM30.88,6.01s-.08,0-.11,0c0,0,.02,0,.03,0,.03,0,.06,0,.09,0ZM31.57,6.2s-.08-.04-.12-.05c.04.02.08.03.12.05ZM31.24,6.07s-.09-.02-.13-.03c.04,0,.09.02.13.03ZM30.24,6.11s.06-.02.09-.03c-.03,0-.06.02-.09.03ZM12.06,15.17c-.08,0-.16,0-.24,0,.03,0,.05,0,.08,0,.05,0,.11,0,.16,0ZM12.59,15.2c-.11,0-.21-.02-.31-.02.1,0,.21.01.31.02ZM12.62,18.53s-.03,0-.05,0c.02,0,.03,0,.05,0ZM12.32,18.49s-.06,0-.09,0c.03,0,.06,0,.09,0ZM12.05,18.47s-.06,0-.09,0c.03,0,.05,0,.09,0ZM11.21,15.2s0,0,0,0c0,0,0,0,0,0-.34.04-.64.18-.89.39.24-.21.55-.35.89-.39ZM11.17,18.47c-.06,0-.11-.02-.17-.03.06.01.11.02.17.03ZM10.87,18.4c-.05-.02-.11-.04-.16-.06.05.02.1.05.16.06ZM10.59,18.28c-.05-.03-.1-.06-.14-.09.05.03.09.07.14.09ZM10.34,18.11s-.09-.08-.13-.12c.04.04.08.08.13.12ZM10.12,17.89s-.07-.1-.11-.15c.03.05.07.1.11.15ZM9.95,17.63c-.03-.06-.06-.13-.08-.19.03.06.05.13.08.19ZM9.82,17.34c-.03-.1-.06-.21-.07-.32.01.11.04.22.07.32ZM6.06,59.45c-.04.11-.05.22-.06.33,0-.11.02-.21.06-.33ZM6.04,60.08c-.02-.07-.03-.14-.03-.21,0,.07.01.14.03.21ZM6.2,60.45c.06.08.12.15.2.22-.08-.06-.14-.14-.2-.22ZM6.07,60.18c.02.07.05.13.09.19-.04-.06-.07-.12-.09-.19ZM6.4,60.67c.07.06.16.11.25.15-.09-.04-.17-.09-.25-.15ZM6.73,60.85c.06.02.13.04.2.06-.07-.01-.13-.03-.2-.06ZM7.04,60.92c.07,0,.14,0,.21,0-.04,0-.09.02-.13.02-.03,0-.05,0-.08,0ZM7.35,60.9c.1-.02.21-.06.31-.11-.1.06-.21.09-.31.11ZM41.14,49.88c.29-.29.49-.66.58-1.07,0-.02,0-.04,0-.06h0s0,.04,0,.06c-.08.41-.29.78-.58,1.07ZM49.2,44.03c.19-.08.38-.19.54-.34-.16.15-.34.27-.54.34Z"/>
      <g>
        <path class="cls-4" d="M34.77,31.68c-.87,0-1.59-.67-1.65-1.55-.02-.25-.35-6.25,3.49-9.66,2.27-2.01,5.4-2.66,9.32-1.94.9.17,1.49,1.03,1.33,1.93-.17.9-1.03,1.49-1.93,1.33-2.86-.53-5.06-.14-6.52,1.16-2.61,2.31-2.39,6.93-2.39,6.98.06.91-.63,1.7-1.55,1.75-.04,0-.07,0-.11,0Z"/>
        <circle class="cls-2" cx="41.74" cy="13.1" r="2"/>
        <circle class="cls-2" cx="41.74" cy="29.1" r="2"/>
        <circle class="cls-2" cx="39.74" cy="48.1" r="2"/>
        <path class="cls-4" d="M48.6,28.89c-.51,0-1-.23-1.33-.66-.54-.73-.4-1.75.32-2.3.22-.17,2.22-1.62,5.2-1.56.91.02,1.64.78,1.62,1.69-.02.91-.74,1.65-1.69,1.62-1.83-.04-3.13.89-3.14.89-.29.21-.64.32-.98.32Z"/>
        <g>
          <g>
            <path class="cls-1" d="M6.06,59.45l11.11-32.91,21.05,17.37L7.66,60.79c-.89.49-1.93-.37-1.6-1.34Z"/>
            <path class="cls-1" d="M29.63,32.88c5.81,4.81,9.63,9.79,8.66,10.96s-6.36-1.91-12.17-6.72c-5.81-4.81-9.73-9.66-8.76-10.83s6.47,1.78,12.27,6.59Z"/>
            <ellipse class="cls-2" cx="28.24" cy="35.1" rx="2.59" ry="13.58" transform="translate(-16.8 33.96) rotate(-49.73)"/>
          </g>
          <path class="cls-4" d="M18.54,23.9c-.71,0-1.37-.46-1.58-1.17-1.4-4.64-5.22-4.26-5.38-4.24-.91.1-1.73-.55-1.83-1.46-.1-.91.55-1.73,1.46-1.83,2.32-.26,7.16.77,8.91,6.57.26.87-.23,1.8-1.1,2.06-.16.05-.32.07-.48.07Z"/>
          <path class="cls-4" d="M25.99,33.89c-.08,0-.16,0-.24-.02-.9-.13-1.53-.97-1.4-1.87,1.38-9.55-4.58-15.4-4.83-15.64-.66-.63-.68-1.68-.05-2.34.63-.66,1.67-.69,2.33-.06.31.29,7.46,7.22,5.83,18.51-.12.82-.83,1.42-1.63,1.42Z"/>
          <path class="cls-4" d="M33.28,39.51c-.56,0-1.11-.29-1.42-.81-.47-.78-.21-1.8.57-2.27,8.38-5.01,16.39-2.23,16.73-2.11.86.31,1.31,1.26,1,2.12-.31.86-1.26,1.3-2.11,1-.13-.05-6.95-2.33-13.91,1.83-.27.16-.56.23-.85.23Z"/>
          <circle class="cls-2" cx="21.74" cy="10.1" r="2"/>
          <circle class="cls-2" cx="29.74" cy="19.1" r="2"/>
          <circle class="cls-2" cx="12.74" cy="29.1" r="2"/>
          <path class="cls-4" d="M30.81,14.38c-.16,0-.32-.02-.48-.07-.88-.26-1.37-1.2-1.12-2.08.03-.09.08-.25.17-.45.43-1.04.78-2.22.09-3.15-.55-.73-.4-1.77.34-2.31.73-.55,1.77-.4,2.31.34,1.91,2.56.7,5.45.31,6.4l-.06.15c-.21.72-.86,1.17-1.56,1.17Z"/>
        </g>
        <path class="cls-4" d="M48.6,44.15c-.44,0-.87-.17-1.2-.51-.8-.83-2.55-.8-2.98-.74-.91.12-1.73-.52-1.85-1.43-.12-.91.52-1.73,1.43-1.85.38-.05,3.73-.41,5.79,1.74.63.66.61,1.71-.05,2.34-.32.31-.73.46-1.14.46Z"/>
      </g>
    </g>
  </g>
</svg>