<?xml version="1.0" encoding="UTF-8"?>
<svg id="Calque_2" data-name="Calque 2" xmlns="http://www.w3.org/2000/svg" viewBox="0 0 102.9 84.53">
  <defs>
    <style>
      .cls-1 {
        fill: #d89233;
      }

      .cls-2 {
        fill: #3a39ff;
      }

      .cls-3 {
        fill: #ffc9bd;
      }

      .cls-4 {
        fill: #f5e8d7;
      }
    </style>
  </defs>
  <g id="_23-sport" data-name="23-sport">
    <g>
      <g>
        <path class="cls-2" d="M93.58,28.36c-.02-.53-.09-1.06-.15-1.57-.07-.36-.11-.71-.2-1.07-.15-.84-.36-1.68-.66-2.5-.13-.4-.27-.8-.42-1.2-.18-.4-.35-.8-.53-1.18,0-.02,0-.04-.02-.05-.2-.36-.4-.73-.58-1.09,0-.02-.02-.02-.02-.02-1-1.78-2.28-3.42-3.75-4.81-.49-.46-.98-.87-1.48-1.27-.27-.22-.53-.42-.78-.58-.24-.16-.47-.33-.73-.49-.27-.2-.6-.38-.91-.55-.27-.16-.55-.31-.84-.46-.27-.15-.58-.29-.87-.42-.58-.27-1.18-.53-1.82-.73-.27-.11-.55-.2-.84-.27-.24-.07-.46-.13-.69-.2-.31-.07-.6-.15-.93-.2-.33-.07-.66-.13-1-.18-.35-.05-.67-.09-1.02-.13-.69-.07-1.37-.11-2.06-.11h-.04c-6.19.02-11.98,2.79-15.86,7.63-.05.09-.18.09-.25,0-3.88-4.84-9.67-7.61-15.85-7.63h-.05c-1.64,0-3.28.2-4.83.58-.31.07-.56.15-.87.24-.29.07-.55.16-.84.27-.62.22-1.24.46-1.82.73-.31.13-.56.26-.87.42-.86.44-1.69.95-2.5,1.51-.26.18-.49.36-.73.56-.29.22-.55.42-.8.64-.22.22-.47.42-.67.64,0,0,0,.02-.02.02-1.48,1.38-2.77,3.01-3.77,4.81-.66,1.15-1.2,2.37-1.58,3.61-.13.38-.27.78-.36,1.17t-.02.04c-.11.4-.18.82-.25,1.22-.09.36-.15.71-.2,1.07-.04.29-.05.56-.09.86-.04.29-.05.58-.07.89,0,.35-.02.69-.02,1.04v.07c0,.51.02,1.02.04,1.55,0,.07,0,.16.02.25.09.89.18,1.82.38,2.75,0,.02,0,.04.02.05.02.29.07.56.15.86.2.86.44,1.73.73,2.6.09.38.24.78.4,1.18.11.4.27.8.46,1.2.29.78.66,1.58,1.04,2.4.2.42.42.82.62,1.22.4.78.86,1.57,1.31,2.35.04.05.07.13.13.2.24.38.47.78.75,1.17.25.42.51.83.81,1.25h-4.04v-5.08c0-1.49-1.21-2.69-2.69-2.69h-3.06c-1.49,0-2.69,1.21-2.69,2.69v.24c-.08,0-.15-.02-.23-.02h-3.06c-1.49,0-2.69,1.21-2.69,2.69v14.54c0,1.49,1.21,2.69,2.69,2.69h3.06c.08,0,.15-.02.23-.02v.3c0,1.49,1.21,2.69,2.69,2.69h3.06c1.49,0,2.69-1.21,2.69-2.69v-5.21h12.4s0,0,0,0c7.47,7.69,15.64,13.51,18.85,15.72.69.47,1.49.71,2.29.71s1.58-.24,2.28-.71c.22-.15.44-.29.67-.47.47-.33,1.02-.71,1.62-1.13.66-.47,1.4-1,2.17-1.6.4-.29.77-.58,1.18-.87.71-.55,1.42-1.11,2.19-1.71.13-.09.24-.16.35-.27.44-.35.89-.71,1.35-1.09,2.95-2.44,6.19-5.34,9.34-8.56.24-.24.47-.49.69-.75.56-.58,1.11-1.15,1.6-1.73,1.58-1.75,3.02-3.48,4.32-5.17.6-.84,1.22-1.66,1.75-2.48.31-.42.56-.84.84-1.26.26-.38.49-.78.71-1.17.04-.07.11-.13.13-.2.47-.78.91-1.57,1.33-2.35.22-.4.4-.8.6-1.22.38-.8.76-1.6,1.06-2.4.18-.4.33-.8.46-1.2.16-.4.31-.8.42-1.18.27-.87.53-1.75.69-2.6.09-.29.13-.56.18-.86.02-.02.02-.04.02-.05.16-.93.27-1.86.36-2.75v-.25c.04-.53.07-1.04.07-1.55v-.07c0-.4-.04-.82-.05-1.22Z"/>
        <path class="cls-2" d="M73.29,9.27c.69,0,1.37.04,2.06.11.35.04.67.07,1.02.13.35.05.67.11,1,.18.33.05.62.13.93.2.24.07.46.13.69.2.29.07.56.16.84.27.64.2,1.24.46,1.82.73.29.13.6.27.87.42.29.15.56.29.84.46.31.16.64.35.91.55.26.16.49.33.73.49.26.16.51.36.78.58.49.4.98.82,1.48,1.27,1.48,1.38,2.75,3.02,3.75,4.81,0,0,.02,0,.02.02.18.36.38.73.58,1.09.02.02.02.04.02.05.18.38.35.78.53,1.18.15.4.29.8.42,1.2.29.82.51,1.66.66,2.5.09.36.13.71.2,1.07.05.51.13,1.04.15,1.57.02.4.05.82.05,1.22v.07c0,.51-.04,1.02-.07,1.55v.25c-.09.89-.2,1.82-.36,2.75,0,.02,0,.04-.02.05-.05.29-.09.56-.18.86-.16.86-.42,1.73-.69,2.6-.11.38-.26.78-.42,1.18-.13.4-.27.8-.46,1.2-.29.8-.67,1.6-1.06,2.4-.2.42-.38.82-.6,1.22-.42.78-.86,1.57-1.33,2.35-.02.07-.09.13-.13.2-.22.38-.46.78-.71,1.17-.27.42-.53.84-.84,1.26-.53.82-1.15,1.64-1.75,2.48-1.29,1.69-2.73,3.42-4.32,5.17-.49.58-1.04,1.15-1.6,1.73-.22.25-.46.51-.69.75-3.15,3.22-6.39,6.12-9.34,8.56-.46.38-.91.75-1.35,1.09-.11.11-.22.18-.35.27-.76.6-1.48,1.17-2.19,1.71-.42.29-.78.58-1.18.87-.76.6-1.51,1.13-2.17,1.6-.6.42-1.15.8-1.62,1.13-.24.18-.46.33-.67.47-.69.47-1.48.71-2.28.71s-1.6-.24-2.29-.71c-3.21-2.2-11.38-8.03-18.85-15.72,0,0,0,0,0,0h-12.4v5.21c0,1.49-1.21,2.69-2.69,2.69h-3.06c-1.49,0-2.69-1.21-2.69-2.69v-.3c-.08,0-.15.02-.23.02h-3.07c-1.49,0-2.69-1.21-2.69-2.69v-14.54c0-1.49,1.21-2.69,2.69-2.69h3.07c.08,0,.15.02.23.02v-.24c0-1.49,1.21-2.69,2.69-2.69h3.06c1.49,0,2.69,1.21,2.69,2.69v5.08h4.04c-.31-.42-.56-.83-.81-1.25-.27-.38-.51-.78-.75-1.17-.05-.07-.09-.15-.13-.2-.46-.78-.91-1.57-1.31-2.35-.2-.4-.42-.8-.62-1.22-.38-.82-.75-1.62-1.04-2.4-.18-.4-.35-.8-.46-1.2-.16-.4-.31-.8-.4-1.18-.29-.87-.53-1.75-.73-2.6-.07-.29-.13-.56-.15-.86-.02-.02-.02-.04-.02-.05-.2-.93-.29-1.86-.38-2.75-.02-.09-.02-.18-.02-.25-.02-.53-.04-1.04-.04-1.55v-.07c0-.35.02-.69.02-1.04.02-.31.04-.6.07-.89.04-.29.05-.56.09-.86.05-.36.11-.71.2-1.07.07-.4.15-.82.25-1.22t.02-.04c.09-.38.24-.78.36-1.17.38-1.24.93-2.46,1.58-3.61,1-1.8,2.29-3.42,3.77-4.81.02,0,.02-.02.02-.02.2-.22.46-.42.67-.64.26-.22.51-.42.8-.64.24-.2.47-.38.73-.56.8-.56,1.64-1.07,2.5-1.51.31-.16.56-.29.87-.42.58-.27,1.2-.51,1.82-.73.29-.11.55-.2.84-.27.31-.09.56-.16.87-.24,1.55-.38,3.19-.58,4.83-.58h.05c6.17.02,11.97,2.79,15.85,7.63.04.05.09.07.13.07s.09-.02.12-.07c3.88-4.84,9.67-7.61,15.86-7.63h.04M73.29,0h-.04c-5.78.02-11.29,1.67-15.99,4.69C52.57,1.67,47.07.02,41.31,0c-2.45,0-4.81.28-7.08.84-.41.1-.76.19-1.17.31-.6.16-1.09.33-1.54.5-.91.32-1.68.63-2.4.96-.56.24-1.02.47-1.41.68-1.21.62-2.41,1.35-3.56,2.16-.43.31-.8.59-1.15.88-.38.29-.72.57-1.07.86-.15.13-.29.26-.43.4-.21.19-.47.42-.75.71-2.13,2.03-3.92,4.34-5.32,6.85-.98,1.72-1.76,3.5-2.33,5.3l-.04.11c-.11.34-.26.77-.4,1.28-.02.08-.05.16-.07.24h0c-.19.68-.3,1.29-.39,1.76-.14.61-.22,1.14-.29,1.59-.01.08-.02.16-.03.23-.03.23-.05.45-.07.68l-.02.18c-.06.49-.1.97-.13,1.5-.01.18-.02.36-.02.54v.27c-.01.25-.02.51-.02.76,0,.65.02,1.23.04,1.82,0,.32.02.72.08,1.19.02.24.05.48.08.73-.68.41-1.32.88-1.9,1.4-5.63.97-9.94,5.89-9.94,11.79v14.54c0,5.88,4.26,10.78,9.86,11.78,2.13,1.96,4.97,3.15,8.09,3.15h3.06c5.17,0,9.59-3.3,11.26-7.9h.02c6.75,6.46,13.64,11.5,17.42,14.1,2.25,1.54,4.85,2.34,7.55,2.34s5.24-.79,7.45-2.29c.31-.21.61-.42.94-.66l.95-.66.53-.37s.08-.06.13-.09l.3-.21c.64-.46,1.33-.96,2.04-1.51.15-.11.31-.23.46-.34.14-.1.27-.21.42-.31.12-.08.24-.17.36-.26.55-.42,1.1-.85,1.67-1.3l.43-.34c.19-.14.46-.34.76-.6.43-.35.88-.71,1.33-1.08,3.57-2.95,6.94-6.04,9.98-9.15.32-.32.63-.65.92-.99.54-.56,1.14-1.19,1.74-1.89,1.68-1.86,3.27-3.77,4.72-5.66.06-.07.11-.15.16-.22l.43-.6c.44-.61.94-1.29,1.43-2.03.28-.4.54-.79.79-1.19l.16-.25c.29-.43.56-.89.79-1.28.14-.21.27-.42.39-.64.45-.76.91-1.58,1.4-2.49.22-.41.45-.88.68-1.36l.11-.23c.41-.87.87-1.83,1.29-2.91.21-.49.4-.99.58-1.53.23-.58.42-1.14.58-1.68.28-.91.6-1.98.84-3.13.11-.44.18-.81.23-1.07.03-.13.05-.25.08-.38h0c.23-1.29.36-2.51.46-3.42.03-.29.05-.58.05-.88.04-.56.07-1.19.07-1.87,0-.52-.02-.99-.05-1.44v-.25c-.04-.74-.12-1.39-.17-1.86l-.03-.29c-.03-.28-.07-.56-.13-.83l-.02-.1c-.06-.34-.12-.67-.19-1.01-.23-1.22-.55-2.43-.95-3.6-.15-.47-.32-.94-.49-1.41-.08-.23-.17-.45-.27-.67l-.16-.36c-.1-.24-.21-.47-.31-.7-.12-.28-.25-.55-.4-.81h0c-.13-.24-.27-.48-.39-.72-.14-.27-.28-.54-.44-.8-1.44-2.5-3.23-4.75-5.3-6.7-.63-.58-1.26-1.13-1.96-1.7-.45-.36-.91-.72-1.46-1.09-.23-.16-.46-.32-.7-.47-.57-.4-1.12-.71-1.58-.96-.36-.21-.72-.41-1.13-.61-.4-.21-.83-.42-1.29-.62-.91-.42-1.73-.75-2.55-1.03-.48-.18-.96-.33-1.44-.46-.11-.03-.23-.07-.34-.1l-.13-.04c-.17-.05-.42-.12-.59-.16l-.11-.03c-.39-.09-.76-.18-1.16-.25-.44-.09-.88-.17-1.34-.24-.51-.08-.99-.14-1.49-.19-1.03-.11-2.02-.16-3.03-.16h0Z"/>
      </g>
      <g>
        <path class="cls-3" d="M95.03,29.58v.07c0,.52-.04,1.04-.07,1.59v.2c-.11,1.06-.22,2.02-.39,2.99-.02.06-.02.09-.04.15-.07.41-.13.67-.2.95-.15.78-.43,1.72-.69,2.6-.13.41-.28.85-.46,1.3-.11.35-.28.8-.48,1.24-.28.78-.69,1.63-1.08,2.43l-.11.26c-.17.35-.33.69-.52,1.04-.43.8-.87,1.59-1.35,2.39-.02.04-.06.07-.07.11-.02.04-.04.07-.06.11-.02,0-.02.02-.02.02-.24.43-.48.82-.72,1.19l-.19.3c-.22.33-.45.67-.69,1.02-.37.56-.82,1.19-1.3,1.84l-.45.61c-1.37,1.8-2.84,3.56-4.41,5.3-.48.56-1.04,1.13-1.61,1.74-.2.24-.46.52-.74.78-2.84,2.91-6.01,5.82-9.44,8.66-.45.37-.91.74-1.37,1.11-.02.04-.17.15-.35.28l-.57.46c-.56.43-1.08.83-1.61,1.24-.3.2-.5.37-.72.54l-.48.37c-.63.48-1.28.96-1.87,1.39l-1.95,1.35c-.2.17-.45.32-.7.48-.89.61-1.95.95-3.04.95s-2.17-.33-3.08-.95c-4.08-2.8-11.96-8.59-19.06-15.91l-.26-.26c-.17-.19-.33-.37-.5-.54-.52-.54-1.08-1.13-1.59-1.72-1.5-1.67-2.97-3.45-4.34-5.25-.67-.85-1.26-1.71-1.84-2.54-.28-.41-.56-.85-.83-1.32-.19-.24-.41-.59-.61-.95l-.13-.2s-.11-.17-.11-.19c-.52-.85-.98-1.67-1.39-2.47l-.24-.48c-.13-.24-.26-.5-.39-.78-.41-.85-.78-1.69-1.09-2.5-.17-.39-.37-.85-.48-1.34-.15-.3-.32-.78-.43-1.22-.24-.72-.5-1.61-.72-2.61-.07-.3-.13-.61-.17-.93-.22-.98-.32-1.93-.41-2.84-.02-.13-.02-.32-.02-.46-.02-.52-.04-1.04-.04-1.54l.02-1.11c.02-.43.04-.74.07-1.08l.09-.85c.07-.45.13-.83.22-1.24.07-.39.15-.83.28-1.24,0-.04.02-.07.02-.11.09-.32.2-.63.3-.95l.07-.22c.41-1.26.98-2.58,1.71-3.86,1.04-1.85,2.37-3.58,4.01-5.1.13-.15.28-.3.43-.43l.26-.22c.35-.32.63-.54.95-.78.2-.17.46-.37.76-.57.87-.61,1.76-1.17,2.67-1.61.33-.19.61-.33.96-.48.57-.26,1.22-.52,1.89-.74.32-.13.63-.22.96-.32.28-.09.56-.17.89-.24,1.67-.41,3.39-.61,5.15-.61,6.17.02,11.92,2.56,16.02,7.03,4.1-4.47,9.85-7.01,15.98-7.03.78,0,1.5.04,2.24.11.37.04.72.07,1.09.13s.72.13,1.09.2c.24.04.54.11.83.19.04,0,.17.04.19.04l.7.2c.28.07.61.19.95.32.52.15,1.15.41,1.89.76.3.13.63.28.95.45.28.15.59.32.89.5.32.15.7.37,1.02.61.2.13.45.3.7.46.24.17.54.39.85.65.52.43,1.04.85,1.56,1.34,1.56,1.46,2.89,3.17,3.97,5.06.04.06.07.11.09.17.17.33.35.67.54,1.02.04.06.07.13.11.22.09.2.2.43.3.65l.2.48c.2.52.35.95.48,1.35.3.85.54,1.76.7,2.69.04.15.09.41.13.65l.13.85c.04.45.09.89.11,1.32l.02.37c.02.3.04.61.04.91Z"/>
        <path class="cls-1" d="M45.82,43.89c-.49,0-.93-.32-1.08-.8l-3.41-11.22h-10.23c-.62,0-1.13-.5-1.13-1.13s.5-1.12,1.13-1.12h11.06c.49,0,.93.32,1.08.8l2.58,8.48,3.77-12.38c.14-.47.58-.8,1.08-.8s.93.32,1.08.8l1.63,5.36h9.88c.62,0,1.12.5,1.12,1.13s-.5,1.12-1.12,1.12h-10.72c-.49,0-.93-.32-1.07-.8l-.8-2.63-3.77,12.39c-.14.47-.58.8-1.08.8h0Z"/>
        <rect class="cls-4" x="33" y="34.08" width="10.13" height="39.36" rx="1.48" ry="1.48" transform="translate(-15.69 91.82) rotate(-90)"/>
        <path class="cls-1" d="M65.71,46.62v14.44c0,1.52-1.22,2.74-2.74,2.74h-2.97c-.09,0-.19,0-.28-.02v.19c0,1.52-1.22,2.74-2.74,2.74h-2.97c-1.5,0-2.74-1.22-2.74-2.74v-20.32c0-1.52,1.24-2.74,2.74-2.74h2.97c1.52,0,2.74,1.22,2.74,2.74v.26c.09-.04.19-.04.28-.04h2.97c1.52,0,2.74,1.22,2.74,2.74Z"/>
        <path class="cls-1" d="M23.7,43.66v20.32c0,1.52-1.22,2.74-2.73,2.74h-2.97c-1.52,0-2.74-1.22-2.74-2.74v-.24c-.09.02-.19.02-.28.02h-2.97c-1.52,0-2.74-1.22-2.74-2.74v-14.44c0-1.52,1.22-2.74,2.74-2.74h2.97c.09,0,.19,0,.28.04v-.2c0-1.52,1.22-2.74,2.74-2.74h2.97c1.5,0,2.73,1.22,2.73,2.74Z"/>
      </g>
    </g>
  </g>
</svg>