<?xml version="1.0" encoding="UTF-8"?>
<svg id="Calque_2" data-name="Calque 2" xmlns="http://www.w3.org/2000/svg" viewBox="0 0 167.38 90.39">
  <defs>
    <style>
      .cls-1 {
        fill: #8d1c20;
      }

      .cls-2 {
        fill: #d89233;
      }

      .cls-3 {
        fill: #80a04e;
      }

      .cls-4 {
        fill: #3a39ff;
      }

      .cls-5 {
        fill: #ffc9bd;
      }

      .cls-6 {
        fill: #f5e8d7;
      }
    </style>
  </defs>
  <g id="_42-terrain-de-bad" data-name="42-terrain-de-bad">
    <g>
      <g>
        <g>
          <path class="cls-4" d="M152.28,86.87c-1.29,0-2.41-.75-2.94-1.83h-2.93c-.54,1.08-1.65,1.83-2.94,1.83h-3.36c-1.29,0-2.41-.75-2.94-1.83h-13.01c-.54,1.08-1.65,1.83-2.94,1.83h-3.36c-1.29,0-2.41-.75-2.94-1.83h-2.57c-.54,1.08-1.65,1.83-2.94,1.83h-3.36c-1.61,0-2.95-1.16-3.23-2.69-1.11-.79-1.83-2.04-1.83-3.46v-14.82c-1.05-1.37-1.64-3.05-1.64-4.8,0-4.19,3.35-7.67,7.52-7.86.09,0,.17-.01.26-.01h6.73v-12.51c0-3.31,2.95-6.01,6.57-6.01h27.93c3.62,0,6.56,2.7,6.56,6.02v12.5s2.17,0,2.17,0c.18,0,.36.02.53.05,3.82.39,6.76,3.62,6.76,7.49,0,3.19-1.99,5.93-4.81,7.03v12.93c0,.79-.22,1.54-.63,2.2v.66c0,1.81-1.47,3.28-3.28,3.28h-3.36Z"/>
          <path class="cls-4" d="M148.35,37.71c1.97,0,3.56,1.35,3.56,3.02v15.5s5.17,0,5.17,0h0c2.39.14,4.29,2.12,4.29,4.54s-1.9,4.4-4.29,4.53h0s-.53.01-.53.01v15.41c0,.43-.25.82-.63,1.05v1.81c0,.15-.13.28-.28.28h-3.36c-.15,0-.28-.13-.28-.28v-1.55h-8.25v1.55c0,.15-.13.28-.28.28h-3.36c-.15,0-.28-.13-.28-.28v-1.55h-18.34v1.55c0,.15-.12.28-.28.28h-3.36c-.16,0-.28-.12-.28-.28v-1.55h-7.89v1.55c0,.15-.13.28-.28.28h-3.36c-.15,0-.28-.12-.28-.28v-1.55h-.22c-.86,0-1.55-.59-1.55-1.32v-15.98c-1-.89-1.64-2.19-1.64-3.64,0-2.66,2.13-4.82,4.78-4.87h0s9.73,0,9.73,0v-15.5c0-1.67,1.61-3.02,3.57-3.02h27.93M148.35,31.71h-27.93c-5.27,0-9.56,4.04-9.56,9.02v9.5h-3.73c-.15,0-.31,0-.46.02-5.73.29-10.33,5.08-10.33,10.85,0,2.04.58,4.03,1.64,5.73v13.89c0,2.02.85,3.84,2.21,5.17.92,2.33,3.19,3.97,5.84,3.97h3.36c1.63,0,3.11-.62,4.23-1.64,1.12,1.02,2.6,1.64,4.23,1.64h3.36c1.72,0,3.29-.7,4.43-1.83h10.04c1.14,1.13,2.7,1.83,4.43,1.83h3.36c1.72,0,3.27-.69,4.41-1.81,1.13,1.12,2.69,1.81,4.41,1.81h3.36c3.44,0,6.24-2.77,6.28-6.2.41-.91.63-1.91.63-2.94v-11.11c2.91-1.88,4.82-5.15,4.82-8.85,0-5.39-4.06-9.88-9.36-10.47-.04,0-.07-.01-.11-.02v-9.56c0-4.97-4.29-9.02-9.56-9.02h0Z"/>
        </g>
        <g>
          <path class="cls-4" d="M92.31,87.38c-1.27,0-2.37-.73-2.91-1.8-2.11,1.07-5.56,1.19-9.03,1.19-.25,0-.51,0-.75,0-.52.35-1.16.56-1.83.56h-3.37c-.88-.01-1.7-.36-2.32-.98-.2-.2-.36-.41-.5-.65-.15-.07-.31-.14-.46-.22l-40.98-.13c-.54,1.08-1.65,1.82-2.94,1.82h-3.37c-1.29-.01-2.4-.76-2.94-1.85h-2.93c-.54,1.07-1.65,1.81-2.94,1.81h-3.37c-.88-.01-1.7-.36-2.32-.98-.62-.62-.95-1.44-.95-2.32v-.67c-.41-.66-.63-1.41-.62-2.2l.04-12.92c-2.82-1.1-4.8-3.86-4.79-7.04.01-3.88,2.97-7.1,6.8-7.47.16-.03.33-.04.5-.04,0,0,2.19,0,2.19,0l.03-12.5c.01-3.31,2.95-6,6.56-6l27.96.09c.89,0,1.75.17,2.54.48.79-.3,1.65-.46,2.52-.46l24.8.08v-8.07c-.42-.37-.78-.8-1.07-1.28-1.98-.15-3.61-.39-4.87-.7-2.06-.43-3.48-.97-4.19-2.3-.24-.45-.36-.94-.36-1.45v-.17c-.02-.16-.03-.32-.03-.48l.14-10.39s0-.1,0-.14c0-.16.01-.32.03-.48.02-.12.04-.23.07-.34.06-.25.15-.49.26-.73.9-1.93,3.02-2.43,4.44-2.58.57-.35,1.28-.67,2.19-1,1.63-.58,3.77-1.1,6.02-1.48.81-.14,3.64-.59,6.04-.59,1.25,0,4.55,0,5.69,2.61,0,0,.04.09.06.14.07.16.12.32.16.48.04.18.07.37.08.55,0,.08.01.16.01.24l.04,2.8c1.2.72,2.45,1.88,2.53,3.63,0,.08,0,.16,0,.23l.14,6.98c0,.2-.01.38-.04.56v.07c.01.49-.09.97-.31,1.41-.67,1.35-2.06,1.92-3.94,2.35-1.31.36-3.04.62-5.16.78-.29.48-.65.91-1.07,1.27v9.16c1.73,1.1,2.83,2.94,2.83,4.97l-.03,12.5,8.02.02c.06,0,.12,0,.18,0,4.24.11,7.68,3.64,7.66,7.89,0,1.75-.6,3.43-1.65,4.8l-.05,14.82c0,1.41-.73,2.66-1.84,3.45-.28,1.52-1.62,2.68-3.23,2.68,0,0-3.37-.01-3.37-.01Z"/>
          <path class="cls-4" d="M85.57,6c1.46,0,2.67.2,2.94.81.01.02.02.05.03.08,0,.02.02.04.02.06v.05s0,0,0,.01l.07,4.7c1.46.57,2.52,1.24,2.51,1.95,0,0,0,.01,0,.02l.14,7.04c0,.08-.01.16-.04.23v.41c-.1.22-.78.51-1.98.78-1.89.53-4.72.73-6.69.82,0,.05.02.11.02.17,0,1.1-.79,2.01-1.82,2.22v12.91c1.62.29,2.83,1.51,2.83,2.96l-.04,15.5,11.02.03s0,0,0,0c0,0,0,0,0,0h.09c2.65.06,4.78,2.22,4.77,4.89,0,1.45-.64,2.74-1.65,3.63l-.05,15.98c0,.72-.7,1.31-1.55,1.31,0,0,0,0,0,0h-.22s0,1.55,0,1.55c0,.15-.13.28-.28.28h-3.36c-.15-.01-.28-.14-.28-.29v-1.55s-1.48,0-1.48,0h-2.09c-.1.68-3.69,1.23-8.11,1.23-.8,0-1.57-.02-2.31-.05v.33c0,.15-.13.28-.28.28h-3.36c-.15-.01-.28-.14-.28-.29v-.72c-1.18-.22-1.89-.5-1.89-.81,0,0,0-.01,0-.02l-16.17-.05h0s-28.59-.09-28.59-.09v1.55c0,.15-.13.28-.29.28h-3.36c-.15-.01-.28-.14-.28-.29v-1.55s-8.25-.03-8.25-.03v1.55c0,.15-.13.28-.29.28h-3.36c-.15-.01-.28-.14-.28-.29v-1.81c-.38-.24-.63-.62-.62-1.06l.05-15.41h-.28s0,0,0,0h-.25s0-.01,0-.01c-2.39-.14-4.28-2.12-4.27-4.54,0-2.42,1.91-4.39,4.3-4.51h0s5.18,0,5.18,0l.04-15.5c0-1.66,1.6-3.01,3.56-3.01,0,0,0,0,.01,0l6.13.02s0,0,0,0l21.8.07c1,0,1.9.35,2.54.92.65-.55,1.54-.9,2.53-.9,0,0,0,0,.01,0l24.87.08h2.91s0-12.83,0-12.83c-1.04-.21-1.82-1.12-1.82-2.22,0-.06.01-.12.02-.17-1.9-.08-4.6-.28-6.49-.76,0,0-.02,0-.03,0-1.31-.28-2.06-.57-2.17-.78v-.47c-.02-.07-.03-.14-.03-.21l.14-10.46s0-.05,0-.07c0-.03,0-.07,0-.1,0,0,0,0,0-.01,0-.05.03-.1.05-.14.26-.61,1.38-.88,2.82-.95.36-.37,1.05-.72,2.11-1.1,1.45-.51,3.41-.99,5.52-1.35.79-.14,3.41-.55,5.54-.55M85.57,0c-2.65,0-5.68.48-6.55.63-2.41.41-4.72.98-6.5,1.61-.68.24-1.45.55-2.22.96-3.02.5-5.08,1.9-6.14,4.18-.18.37-.32.76-.43,1.16-.06.24-.11.47-.15.72-.03.21-.07.54-.07.95,0,.06,0,.11,0,.18l-.14,10.27s0,.06,0,.08c0,.21,0,.42.03.63,0,1,.24,2,.71,2.88,1.32,2.48,3.75,3.3,6.18,3.81,1.01.25,2.22.45,3.61.6v3.51l-21.77-.07c-.87,0-1.72.11-2.54.32-.82-.22-1.68-.33-2.55-.33l-21.8-.07-6.14-.02c-5.29,0-9.58,4.03-9.59,8.99l-.02,9.56s-.08.01-.12.02C4.09,51.14.02,55.62,0,61c-.01,3.69,1.89,6.97,4.79,8.86l-.03,11.11c0,1.03.21,2.03.62,2.94.02,1.65.66,3.19,1.82,4.36,1.18,1.19,2.76,1.85,4.44,1.86h3.36c1.72.01,3.27-.68,4.41-1.79,1.18,1.17,2.74,1.82,4.41,1.82h3.36c1.73.01,3.29-.68,4.43-1.81l24.45.08,13.91.04c1.13,1.13,2.69,1.84,4.42,1.84h3.36c.92.01,1.8-.19,2.59-.55,0,0,0,0,.01,0,2.8,0,5.69-.1,8.12-.71,1.06.82,2.38,1.3,3.81,1.31h3.36c2.66.01,4.93-1.63,5.86-3.95,1.37-1.32,2.22-3.14,2.23-5.15l.04-13.89c1.07-1.7,1.65-3.68,1.66-5.73.02-5.77-4.57-10.58-10.3-10.89-.15-.01-.3-.02-.45-.02h-.08s0,0,0,0h0s0,0,0,0l-5.02-.02.02-9.51c0-2.48-1.06-4.77-2.83-6.43v-6.14c1.54-.17,2.85-.4,3.95-.7,1.53-.35,4.49-1.08,5.91-3.92.41-.82.63-1.73.63-2.65.02-.22.03-.45.03-.67,0-.04,0-.08,0-.12l-.14-7.04c0-.09,0-.18-.01-.26-.07-1.54-.67-3.37-2.55-4.99l-.02-1.37c0-.12,0-.25-.02-.37-.02-.36-.08-.72-.17-1.07-.06-.25-.15-.51-.25-.77-.07-.18-.14-.35-.22-.52-1.32-2.79-4.12-4.21-8.35-4.21h0Z"/>
        </g>
      </g>
      <g>
        <g>
          <path class="cls-2" d="M89.28,22.14c-1.48.33-3.77.64-6.77.74h-.54c-.2.02-.41.02-.62.03-.33,0-.66,0-1.01,0s-.69,0-1.01,0c-.22,0-.42,0-.62-.01-.18,0-.36,0-.54-.01-2.86-.1-5.07-.38-6.56-.68,1.89.48,4.59.68,6.49.76,0,.05-.02.11-.02.17,0,1.1.79,2.01,1.82,2.22v56.9c0,.25.19.44.44.44s.44-.2.44-.44V25.35c1.04-.21,1.82-1.12,1.82-2.22,0-.06-.01-.12-.02-.17,1.97-.08,4.8-.29,6.69-.82ZM80.78,24.43c-.14.04-.28.08-.44.08s-.3-.03-.44-.08c-.55-.19-.94-.7-.94-1.3,0-.05,0-.09.01-.14.38,0,.69.01.93.02s.39,0,.44,0,.2,0,.44,0,.55,0,.93-.02c0,.05.01.09.01.14,0,.6-.4,1.11-.94,1.3Z"/>
          <path class="cls-5" d="M91.26,20.96c-.17.51-.93.9-1.98,1.19-1.48.33-3.77.64-6.77.74h-.54c-.2.02-.41.02-.62.03-.33,0-.66,0-1.01,0s-.69,0-1.01,0c-.22,0-.42,0-.62-.01-.18,0-.36,0-.54-.01-2.86-.1-5.07-.38-6.56-.68,0,0-.02,0-.03,0-1.15-.29-1.99-.7-2.16-1.25l.14-10.68s.11.06.16.09c.03.02.06.04.1.06.1.06.2.12.31.17.05.02.1.05.14.07.07.04.14.08.22.11.06.02.11.05.17.08.07.03.14.06.21.1.06.02.12.05.18.07.08.03.15.07.24.1.02,0,.05.02.07.02.03.01.06.02.1.04.12.04.24.09.38.14,0,0,.01,0,.02,0,.07.02.14.05.21.07.08.03.16.06.24.09.08.02.15.05.23.08.08.02.15.05.23.07.08.02.16.05.24.07.08.03.16.05.24.07.08.03.16.05.24.08.11.03.22.06.33.09.23.07.46.14.71.2.04,0,.09.02.14.03.03,0,.06.02.1.03.03.01.07.02.1.03.09.02.18.04.27.07.06.01.13.03.19.05.1.02.19.04.28.07h0c.25.06.49.12.72.17.04,0,.08.02.11.02.11.02.2.05.3.07.05,0,.09.02.13.03.1.02.19.04.29.06.03.01.07.02.1.02.47.1.9.19,1.27.27h0c.78.15,1.31.25,1.4.26,0,0,.03,0,.04,0,.07.02.23.04.45.07,1.28.2,4.72.7,7.54.7.16,0,.31-.01.47-.01.07,0,.14,0,.21,0,.09,0,.18,0,.27,0,.17,0,.32-.02.48-.03.68-.06,1.29-.15,1.74-.32v.03l.14,7.19Z"/>
          <path class="cls-2" d="M81.72,23.13c0,.6-.4,1.11-.94,1.3-.14.04-.28.08-.44.08s-.3-.03-.44-.08c-.55-.19-.94-.7-.94-1.3,0-.05,0-.09.01-.14.38,0,.69.01.93.02s.39,0,.44,0,.2,0,.44,0,.55,0,.93-.02c0,.05.01.09.01.14Z"/>
          <path class="cls-2" d="M72.1,9.89l-.03,1.32c-.97-.4-1.54-.75-1.66-.97.17-.16.75-.29,1.68-.36Z"/>
          <path class="cls-2" d="M91.3,20.72c0,.08-.01.16-.04.23l-.14-7.19v-.03c-.45.16-1.06.26-1.74.32-.16,0-.31.02-.48.03-.09,0-.17,0-.27,0l-.02-1.79v-.52s-.01-.51-.01-.51l-.05-3.64c-1.53.92-4.53,1.63-6.41,2-.58.12-1.05.2-1.34.25-.01,0-.04,0-.05,0-.3.05-.86.14-1.54.24-2.06.28-5.32.61-6.94.12l-.02,1.21h0c.46.17.98.34,1.56.51-.11-.03-.22-.06-.33-.09-.08-.03-.16-.05-.24-.08-.08-.02-.15-.04-.24-.07-.08-.02-.15-.05-.24-.07-.08-.02-.15-.05-.23-.07-.07-.03-.15-.05-.23-.08-.08-.03-.16-.05-.24-.09-.07-.02-.14-.05-.21-.07,0,0-.01,0-.02,0-.14-.05-.26-.1-.38-.14-.04-.02-.07-.03-.1-.04-.02,0-.05-.01-.07-.02-.09-.03-.16-.07-.24-.1-.06-.02-.12-.05-.18-.07-.07-.04-.14-.07-.21-.1-.06-.02-.11-.05-.17-.08-.07-.03-.15-.07-.22-.11-.04-.02-.09-.04-.14-.07-.11-.06-.21-.12-.31-.17-.03-.02-.07-.04-.1-.06-.05-.03-.11-.06-.16-.09l-.14,10.68c-.02-.07-.03-.14-.03-.21l.14-10.46s0-.05,0-.07c0-.03,0-.07,0-.1,0,0,0,0,0-.01,0-.05.03-.1.05-.14.26-.61,1.38-.88,2.82-.95.36-.37,1.05-.72,2.11-1.1,1.45-.51,3.41-.99,5.52-1.35.79-.14,3.41-.55,5.54-.55,1.46,0,2.67.2,2.94.81.01.02.02.05.03.08,0,.02.02.04.02.06v.05s0,0,0,.01l.07,4.7c1.46.57,2.52,1.24,2.51,1.95,0,0,0,.01,0,.02l.14,7.04Z"/>
          <path class="cls-5" d="M88.63,14.1c-.07,0-.14,0-.21,0-.16,0-.31.01-.47.01-2.82,0-6.26-.5-7.54-.7-.22-.03-.38-.05-.45-.07,0,0-.03,0-.04,0-.09-.01-.62-.11-1.4-.26h0c-.37-.08-.81-.16-1.27-.27-.03,0-.06,0-.1-.02-.1-.02-.19-.04-.29-.06-.04,0-.08-.02-.13-.03-.1-.02-.19-.04-.3-.07-.03,0-.07-.01-.11-.02-.23-.05-.47-.11-.72-.17h0c-.1-.03-.19-.05-.28-.07-.06-.02-.13-.03-.19-.05-.09-.02-.18-.05-.27-.07-.03,0-.07-.01-.1-.03-.03,0-.07-.02-.1-.03-.05-.01-.1-.02-.14-.03-.25-.06-.48-.13-.71-.2-.57-.17-1.1-.34-1.56-.51h0s.02-1.21.02-1.21c1.61.49,4.88.16,6.94-.12.69-.1,1.24-.18,1.54-.24,0,0,.03,0,.05,0,.28-.05.76-.14,1.34-.25,1.88-.38,4.89-1.08,6.41-2l.05,3.64v.51s.01.52.01.52l.02,1.79Z"/>
          <path class="cls-5" d="M74.65,12.19s.06.02.1.03c-.08-.02-.16-.04-.24-.06.04,0,.09.02.14.03Z"/>
          <path class="cls-5" d="M88.63,14.1v.07h-.27c-.08,0-.14,0-.22,0-.16,0-.35,0-.52,0-.07,0-.15,0-.24,0-.18,0-.38-.01-.58-.02-.08,0-.15,0-.24,0-.22,0-.44-.02-.67-.04h-.22c-.24-.03-.5-.05-.75-.07-.08,0-.14-.01-.22-.02-.28-.02-.56-.05-.84-.08-.06,0-.12-.01-.19-.02-.31-.03-.64-.08-.98-.12-.04,0-.08,0-.12-.01-.76-.1-1.57-.22-2.42-.37-.84-.14-1.64-.29-2.38-.44-.03,0-.07-.02-.11-.02-.33-.07-.66-.14-.97-.21-.17-.04-.33-.07-.49-.12-.17-.04-.34-.08-.5-.12-.29-.07-.58-.14-.86-.22.09.02.18.04.27.07.06.01.13.03.19.05.1.02.19.04.28.07h0c.25.06.49.12.72.17.04,0,.08.02.11.02.11.02.2.05.3.07.05,0,.09.02.13.03.1.02.19.04.29.06.03.01.07.02.1.02.47.1.9.19,1.27.27h0c.78.15,1.31.25,1.4.26,0,0,.03,0,.04,0,.07.02.23.04.45.07,1.28.2,4.72.7,7.54.7.16,0,.31-.01.47-.01.07,0,.14,0,.21,0Z"/>
          <path class="cls-5" d="M71.58,22.2c-1.31-.28-2.06-.57-2.17-.78v-.47c.17.55,1.02.96,2.17,1.25Z"/>
          <path class="cls-5" d="M91.27,21.37c-.11.22-.79.51-1.99.78,1.05-.29,1.81-.68,1.98-1.19v.41Z"/>
          <path class="cls-2" d="M88.48,82.51c0,.7-3.63,1.27-8.12,1.27s-8.12-.57-8.12-1.27,3.39-1.23,7.66-1.26v1c0,.25.19.44.44.44s.44-.2.44-.44v-1c4.29.03,7.7.58,7.7,1.26Z"/>
          <path class="cls-2" d="M80.78,81.25v1c0,.25-.2.44-.44.44s-.44-.2-.44-.44v-1c.15,0,.3,0,.46,0,.14,0,.28,0,.42,0Z"/>
        </g>
        <g>
          <path class="cls-1" d="M122.07,60.75v19.98c0,.73-.7,1.32-1.55,1.32h-14.99c-.86,0-1.55-.59-1.55-1.32v-19.98h18.1Z"/>
          <g>
            <rect class="cls-5" x="107.12" y="56.23" width="13.85" height="9.08"/>
            <path class="cls-5" d="M116.18,60.77c0,2.51,2.03,4.54,4.54,4.54s4.54-2.03,4.54-4.54-2.03-4.54-4.54-4.54-4.54,2.03-4.54,4.54Z"/>
          </g>
          <path class="cls-2" d="M152.28,80.86h3.36c.15,0,.28.13.28.28v2.45c0,.15-.13.28-.28.28h-3.36c-.15,0-.28-.13-.28-.28v-2.45c0-.15.13-.28.28-.28Z"/>
          <path class="cls-2" d="M140.11,80.86h3.36c.15,0,.28.13.28.28v2.45c0,.15-.13.28-.28.28h-3.36c-.15,0-.28-.13-.28-.28v-2.45c0-.15.13-.28.28-.28Z"/>
          <path class="cls-2" d="M106.03,80.86h3.36c.15,0,.28.13.28.28v2.45c0,.15-.13.28-.28.28h-3.36c-.15,0-.28-.13-.28-.28v-2.45c0-.15.13-.28.28-.28Z"/>
          <path class="cls-2" d="M117.85,80.86h3.36c.15,0,.28.13.28.28v2.45c0,.15-.13.28-.28.28h-3.36c-.15,0-.28-.13-.28-.28v-2.45c0-.15.13-.28.28-.28Z"/>
          <g>
            <path class="cls-5" d="M148.35,37.71h-24.87s-.01,28.83-.01,28.83h24.87c1.97,0,3.56-1.35,3.56-3.02v-22.79c.01-1.67-1.58-3.02-3.55-3.02Z"/>
            <path class="cls-6" d="M145.77,63.52c0,1.67-1.59,3.02-3.57,3.02h-21.8c-1.97,0-3.56-1.35-3.56-3.02v-22.79c.01-1.67,1.61-3.02,3.58-3.02h21.8c1.97,0,3.56,1.35,3.56,3.02v22.79Z"/>
          </g>
          <g>
            <rect class="cls-5" x="111.16" y="63.57" width="34.48" height="18.47"/>
            <rect class="cls-6" x="111.16" y="74.21" width="34.49" height="7.83"/>
            <g>
              <path class="cls-6" d="M111.57,73.38h32.51c.86,0,1.57-.52,1.57-1.16v-9.03c0-.43-.73-.92-1.57-1.16-12.86-1.81-31.35,0-31.35,0-.96.25-1.26.52-1.57,1.16v9.78s-.04.41.41.41Z"/>
              <path class="cls-5" d="M111.16,63.29h34.49v8.93c0,.64-.7,1.16-1.57,1.16h-32.51c-.45,0-.41-.41-.41-.41v-9.68Z"/>
            </g>
          </g>
          <g>
            <path class="cls-5" d="M156.56,60.89v19.84c0,.73-.7,1.31-1.55,1.31h-14.99c-.86,0-1.55-.59-1.55-1.31v-19.84h18.1Z"/>
            <path class="cls-6" d="M145.64,60.89v19.82c0,1.33-1.27,1.33-1.27,1.33h-4.36c-.86,0-1.55-.59-1.55-1.31v-19.84h7.18Z"/>
          </g>
          <g>
            <rect class="cls-5" x="143.24" y="56.23" width="13.85" height="9.08"/>
            <path class="cls-6" d="M138.45,61.1c0,2.69,2.18,4.87,4.87,4.87s4.87-2.18,4.87-4.87-2.18-4.87-4.87-4.87-4.87,2.18-4.87,4.87Z"/>
            <path class="cls-5" d="M152.3,60.77c0,2.51,2.03,4.54,4.54,4.54s4.54-2.03,4.54-4.54-2.03-4.54-4.54-4.54-4.54,2.03-4.54,4.54Z"/>
          </g>
          <path class="cls-6" d="M111.16,60.75v21.29h-5.63c-.86,0-1.55-.59-1.55-1.32v-19.98h7.18Z"/>
          <circle class="cls-6" cx="107.21" cy="61.1" r="4.87"/>
        </g>
        <g>
          <path class="cls-3" d="M79.71,61.22l-.06,19.98c0,.73.69,1.32,1.55,1.32l14.99.05c.86,0,1.56-.58,1.56-1.31l.06-19.98-18.1-.06Z"/>
          <g>
            <rect class="cls-5" x="83.2" y="54.35" width="9.08" height="13.85" transform="translate(26.19 148.82) rotate(-89.82)"/>
            <path class="cls-5" d="M85.6,61.27c0,2.51-2.05,4.53-4.55,4.53s-4.53-2.05-4.53-4.55,2.05-4.53,4.55-4.53,4.53,2.05,4.53,4.55Z"/>
          </g>
          <g>
            <path class="cls-5" d="M52.12,38.1l24.87.08-.08,28.82-24.87-.08c-1.97,0-3.56-1.36-3.56-3.03l.06-22.79c0-1.67,1.61-3.01,3.57-3.01Z"/>
            <path class="cls-6" d="M54.62,63.92c0,1.67,1.59,3.02,3.56,3.03l21.8.07c1.97,0,3.57-1.34,3.57-3.01l.06-22.79c0-1.67-1.59-3.02-3.56-3.03l-21.8-.07c-1.97,0-3.57,1.34-3.57,3.01l-.06,22.79Z"/>
          </g>
          <path class="cls-2" d="M12.12,80.67h2.45c.15,0,.28.13.28.28v3.36c0,.15-.13.28-.28.28h-2.45c-.15,0-.28-.13-.28-.28v-3.36c0-.15.13-.28.28-.28Z" transform="translate(-69.33 95.73) rotate(-89.82)"/>
          <rect class="cls-2" x="24.02" y="80.71" width="3.01" height="3.92" rx=".28" ry=".28" transform="translate(-57.23 107.94) rotate(-89.82)"/>
          <path class="cls-2" d="M92.78,80.92h2.45c.15,0,.28.13.28.28v3.36c0,.15-.13.28-.28.28h-2.45c-.15,0-.28-.13-.28-.28v-3.36c0-.15.13-.28.28-.28Z" transform="translate(10.83 176.63) rotate(-89.82)"/>
          <rect class="cls-2" x="74.59" y="80.87" width="3.01" height="3.92" rx=".28" ry=".28" transform="translate(-6.97 158.67) rotate(-89.82)"/>
          <g>
            <rect class="cls-5" x="64.11" y="56.02" width="18.47" height="34.48" transform="translate(-.14 146.38) rotate(-89.82)"/>
            <rect class="cls-6" x="69.42" y="61.34" width="7.83" height="34.49" transform="translate(-5.48 151.67) rotate(-89.82)"/>
            <g>
              <path class="cls-6" d="M90.18,73.89l-32.51-.1c-.86,0-1.56-.52-1.56-1.16l.03-9.03c0-.43.73-.92,1.57-1.15,12.86-1.77,31.35.1,31.35.1.96.25,1.26.52,1.56,1.16l-.03,9.78s.04.41-.41.41Z"/>
              <path class="cls-5" d="M90.62,63.8l-34.48-.11-.03,8.93c0,.64.7,1.16,1.56,1.16l32.51.1c.45,0,.41-.41.41-.41l.03-9.68Z"/>
            </g>
          </g>
          <g>
            <path class="cls-5" d="M19.09,38l24.87.08-.08,28.82-24.87-.08c-1.97,0-3.56-1.36-3.56-3.03l.06-22.79c0-1.67,1.61-3.01,3.57-3.01Z"/>
            <path class="cls-6" d="M21.6,63.82c0,1.67,1.59,3.02,3.56,3.03l21.8.07c1.97,0,3.57-1.34,3.57-3.01l.06-22.79c0-1.67-1.59-3.02-3.56-3.03l-21.8-.07c-1.97,0-3.57,1.34-3.57,3.01l-.06,22.79Z"/>
          </g>
          <g>
            <rect class="cls-5" x="29.71" y="55.91" width="18.47" height="34.48" transform="translate(-34.34 111.87) rotate(-89.82)"/>
            <rect class="cls-6" x="35.01" y="61.23" width="7.83" height="34.49" transform="translate(-39.67 117.15) rotate(-89.82)"/>
            <g>
              <path class="cls-6" d="M55.77,73.78l-32.51-.1c-.86,0-1.56-.52-1.56-1.16l.03-9.03c0-.43.73-.92,1.57-1.15,12.86-1.77,31.35.1,31.35.1.96.25,1.26.52,1.56,1.16l-.03,9.78s.04.41-.41.41Z"/>
              <path class="cls-5" d="M56.21,63.7l-34.48-.11-.03,8.93c0,.64.7,1.16,1.56,1.16l32.51.1c.45,0,.41-.41.41-.41l.03-9.68Z"/>
            </g>
          </g>
          <g>
            <path class="cls-5" d="M10.82,61.15l-.06,19.84c0,.73.69,1.32,1.55,1.32l14.99.05c.86,0,1.56-.58,1.56-1.31l.06-19.84-18.1-.06Z"/>
            <path class="cls-6" d="M21.73,61.19l-.06,19.82c0,1.33,1.27,1.33,1.27,1.33h4.36c.86.02,1.56-.57,1.56-1.3l.06-19.84-7.18-.02Z"/>
          </g>
          <g>
            <rect class="cls-5" x="12.67" y="54.13" width="9.08" height="13.85" transform="translate(-43.9 78.08) rotate(-89.82)"/>
            <path class="cls-6" d="M28.92,61.42c0,2.69-2.2,4.86-4.89,4.86s-4.86-2.19-4.86-4.89,2.2-4.86,4.89-4.86,4.86,2.2,4.86,4.89Z"/>
            <path class="cls-5" d="M15.08,61.05c0,2.51-2.05,4.53-4.55,4.53s-4.53-2.05-4.53-4.55,2.05-4.53,4.55-4.53,4.53,2.05,4.53,4.55Z"/>
          </g>
          <path class="cls-6" d="M90.63,61.26l-.07,21.29,5.63.02c.86,0,1.56-.58,1.56-1.31l.06-19.98-7.18-.02Z"/>
          <path class="cls-6" d="M99.45,61.64c0,2.69-2.2,4.86-4.89,4.86s-4.86-2.19-4.86-4.89,2.2-4.86,4.89-4.86,4.86,2.2,4.86,4.89Z"/>
        </g>
      </g>
    </g>
  </g>
</svg>